<svg width="905" height="729" viewBox="0 0 905 729" fill="none" xmlns="http://www.w3.org/2000/svg">
<g clip-path="url(#clip0_2764_49832)">
<g filter="url(#filter0_b_2764_49832)">
<rect x="165" y="729" width="598" height="65" rx="8" transform="rotate(-90 165 729)" fill="url(#paint0_linear_2764_49832)"/>
<rect x="165" y="729" width="598" height="65" rx="8" transform="rotate(-90 165 729)" fill="url(#paint1_linear_2764_49832)"/>
<rect x="165.5" y="728.5" width="597" height="64" rx="7.5" transform="rotate(-90 165.5 728.5)" stroke="#ADABB3"/>
</g>
<g filter="url(#filter1_b_2764_49832)">
<rect x="285" y="131" width="616" height="56" rx="8" fill="url(#paint2_linear_2764_49832)"/>
<rect x="285" y="131" width="616" height="56" rx="8" fill="url(#paint3_linear_2764_49832)"/>
<path d="M569.669 161.48C569.669 162.352 569.453 163.02 569.021 163.484C568.597 163.94 567.973 164.168 567.149 164.168C566.325 164.168 565.673 163.94 565.193 163.484C564.721 163.02 564.485 162.352 564.485 161.48V160.832H565.493V161.48C565.493 162.008 565.629 162.432 565.901 162.752C566.173 163.072 566.589 163.232 567.149 163.232C567.709 163.232 568.101 163.072 568.325 162.752C568.549 162.432 568.661 162.008 568.661 161.48V156.536H567.797V155.6H570.389V156.536H569.669V161.48ZM576.609 158.024C576.609 157.752 576.553 157.512 576.441 157.304C576.337 157.096 576.193 156.924 576.009 156.788C575.825 156.652 575.613 156.548 575.373 156.476C575.133 156.404 574.881 156.368 574.617 156.368C574.385 156.368 574.165 156.4 573.957 156.464C573.749 156.52 573.561 156.604 573.393 156.716C573.233 156.828 573.105 156.968 573.009 157.136C572.913 157.296 572.865 157.484 572.865 157.7V157.772C572.865 158.004 572.913 158.204 573.009 158.372C573.105 158.532 573.245 158.672 573.429 158.792C573.621 158.904 573.857 159 574.137 159.08C574.417 159.152 574.745 159.216 575.121 159.272C576.001 159.408 576.649 159.668 577.065 160.052C577.481 160.428 577.689 160.936 577.689 161.576V161.72C577.689 162.08 577.625 162.412 577.497 162.716C577.377 163.012 577.193 163.268 576.945 163.484C576.705 163.7 576.405 163.868 576.045 163.988C575.685 164.108 575.269 164.168 574.797 164.168C574.261 164.168 573.785 164.092 573.369 163.94C572.961 163.78 572.617 163.564 572.337 163.292C572.065 163.012 571.857 162.688 571.713 162.32C571.569 161.944 571.497 161.536 571.497 161.096V160.736H572.505V161.024C572.505 161.76 572.705 162.312 573.105 162.68C573.513 163.048 574.077 163.232 574.797 163.232C575.421 163.232 575.889 163.096 576.201 162.824C576.521 162.544 576.681 162.176 576.681 161.72V161.648C576.681 161.208 576.517 160.872 576.189 160.64C575.869 160.408 575.345 160.24 574.617 160.136C574.193 160.08 573.809 159.996 573.465 159.884C573.129 159.764 572.841 159.612 572.601 159.428C572.361 159.236 572.177 159.008 572.049 158.744C571.921 158.48 571.857 158.168 571.857 157.808V157.664C571.857 157.336 571.925 157.036 572.061 156.764C572.197 156.492 572.385 156.256 572.625 156.056C572.873 155.856 573.165 155.704 573.501 155.6C573.845 155.488 574.221 155.432 574.629 155.432C575.101 155.432 575.521 155.5 575.889 155.636C576.265 155.772 576.581 155.956 576.837 156.188C577.093 156.412 577.285 156.68 577.413 156.992C577.549 157.296 577.617 157.616 577.617 157.952V158.456H576.609V158.024ZM579.025 158.864C579.025 157.776 579.285 156.932 579.805 156.332C580.325 155.732 581.049 155.432 581.977 155.432C582.905 155.432 583.629 155.732 584.149 156.332C584.669 156.932 584.929 157.776 584.929 158.864V160.736C584.929 161.856 584.669 162.708 584.149 163.292C583.629 163.876 582.905 164.168 581.977 164.168C581.049 164.168 580.325 163.876 579.805 163.292C579.285 162.708 579.025 161.856 579.025 160.736V158.864ZM581.977 163.232C582.625 163.232 583.109 163.012 583.429 162.572C583.757 162.124 583.921 161.488 583.921 160.664V158.936C583.921 158.168 583.757 157.548 583.429 157.076C583.109 156.604 582.625 156.368 581.977 156.368C581.329 156.368 580.841 156.604 580.513 157.076C580.193 157.548 580.033 158.168 580.033 158.936V160.664C580.033 161.488 580.193 162.124 580.513 162.572C580.841 163.012 581.329 163.232 581.977 163.232ZM590.968 163.568H591.112V155.6H592.12V164H590.104L587.68 156.032H587.536V164H586.528V155.6H588.544L590.968 163.568ZM594.872 160.448H598.472V161.312H594.872V160.448ZM606.648 164H605.64V161.192C605.64 160.984 605.592 160.824 605.496 160.712C605.4 160.6 605.232 160.544 604.992 160.544H602.376V164H601.368V155.6H604.368C604.8 155.6 605.176 155.664 605.496 155.792C605.816 155.912 606.08 156.076 606.288 156.284C606.504 156.492 606.664 156.736 606.768 157.016C606.88 157.288 606.936 157.576 606.936 157.88V158.24C606.936 158.552 606.848 158.864 606.672 159.176C606.504 159.488 606.24 159.728 605.88 159.896V160.04C606.12 160.08 606.308 160.176 606.444 160.328C606.58 160.48 606.648 160.696 606.648 160.976V164ZM602.376 159.608H604.248C604.816 159.608 605.236 159.488 605.508 159.248C605.788 159 605.928 158.64 605.928 158.168V157.952C605.928 157.528 605.788 157.188 605.508 156.932C605.236 156.668 604.816 156.536 604.248 156.536H602.376V159.608ZM609.723 160.544V164H608.715V155.6H611.715C612.147 155.6 612.523 155.664 612.843 155.792C613.163 155.912 613.427 156.076 613.635 156.284C613.851 156.492 614.011 156.736 614.115 157.016C614.227 157.288 614.283 157.576 614.283 157.88V158.24C614.283 158.544 614.227 158.836 614.115 159.116C614.011 159.396 613.851 159.644 613.635 159.86C613.419 160.068 613.151 160.236 612.831 160.364C612.511 160.484 612.139 160.544 611.715 160.544H609.723ZM609.723 159.608H611.595C612.715 159.608 613.275 159.128 613.275 158.168V157.952C613.275 157.528 613.135 157.188 612.855 156.932C612.583 156.668 612.163 156.536 611.595 156.536H609.723V159.608ZM618.763 163.232C619.107 163.232 619.399 163.176 619.639 163.064C619.887 162.944 620.087 162.788 620.239 162.596C620.399 162.396 620.515 162.172 620.587 161.924C620.667 161.668 620.707 161.4 620.707 161.12V160.976H621.715V161.12C621.715 161.544 621.651 161.944 621.523 162.32C621.395 162.688 621.207 163.012 620.959 163.292C620.711 163.564 620.403 163.78 620.035 163.94C619.667 164.092 619.243 164.168 618.763 164.168C617.835 164.168 617.111 163.876 616.591 163.292C616.071 162.708 615.811 161.856 615.811 160.736V158.864C615.811 157.776 616.071 156.932 616.591 156.332C617.111 155.732 617.835 155.432 618.763 155.432C619.243 155.432 619.667 155.512 620.035 155.672C620.403 155.824 620.711 156.04 620.959 156.32C621.207 156.592 621.395 156.916 621.523 157.292C621.651 157.66 621.715 158.056 621.715 158.48V158.624H620.707V158.48C620.699 158.208 620.655 157.944 620.575 157.688C620.503 157.432 620.387 157.208 620.227 157.016C620.075 156.816 619.879 156.66 619.639 156.548C619.399 156.428 619.107 156.368 618.763 156.368C618.115 156.368 617.627 156.604 617.299 157.076C616.979 157.548 616.819 158.168 616.819 158.936V160.664C616.819 161.488 616.979 162.124 617.299 162.572C617.627 163.012 618.115 163.232 618.763 163.232Z" fill="white"/>
<rect x="285.5" y="131.5" width="615" height="55" rx="7.5" stroke="#ADABB3"/>
</g>
<path d="M198.968 409.827L198.968 406.083L203 406.083L203 407.019L201.992 407.019L201.992 407.163C202.344 407.299 202.628 407.539 202.844 407.883C203.06 408.227 203.168 408.627 203.168 409.083C203.168 409.987 202.876 410.699 202.292 411.219C201.708 411.731 200.856 411.987 199.736 411.987L197.864 411.987C196.776 411.987 195.932 411.727 195.332 411.207C194.732 410.687 194.432 409.963 194.432 409.035C194.432 408.555 194.512 408.131 194.672 407.763C194.824 407.395 195.04 407.087 195.32 406.839C195.592 406.591 195.916 406.403 196.292 406.275C196.66 406.147 197.056 406.083 197.48 406.083L197.624 406.083L197.624 407.091L197.48 407.091C197.208 407.091 196.944 407.131 196.688 407.211C196.432 407.283 196.208 407.399 196.016 407.559C195.816 407.711 195.66 407.911 195.548 408.159C195.428 408.399 195.368 408.691 195.368 409.035C195.368 409.683 195.604 410.171 196.076 410.499C196.548 410.819 197.168 410.979 197.936 410.979L199.664 410.979C200.488 410.979 201.124 410.819 201.572 410.499C202.012 410.171 202.232 409.675 202.232 409.011C202.232 408.411 202.04 407.943 201.656 407.607C201.272 407.263 200.736 407.091 200.048 407.091L199.904 407.091L199.904 409.827L198.968 409.827ZM203 399.048L203 400.056L200.192 400.056C199.984 400.056 199.824 400.104 199.712 400.2C199.6 400.296 199.544 400.464 199.544 400.704L199.544 403.32L203 403.32L203 404.328L194.6 404.328L194.6 401.328C194.6 400.896 194.664 400.52 194.792 400.2C194.912 399.88 195.076 399.616 195.284 399.408C195.492 399.192 195.736 399.032 196.016 398.928C196.288 398.816 196.576 398.76 196.88 398.76L197.24 398.76C197.552 398.76 197.864 398.848 198.176 399.024C198.488 399.192 198.728 399.456 198.896 399.816L199.04 399.816C199.08 399.576 199.176 399.388 199.328 399.252C199.48 399.116 199.696 399.048 199.976 399.048L203 399.048ZM198.608 403.32L198.608 401.448C198.608 400.88 198.488 400.46 198.248 400.188C198 399.908 197.64 399.768 197.168 399.768L196.952 399.768C196.528 399.768 196.188 399.908 195.932 400.188C195.668 400.46 195.536 400.88 195.536 401.448L195.536 403.32L198.608 403.32ZM199.544 395.972L203 395.972L203 396.98L194.6 396.98L194.6 393.98C194.6 393.548 194.664 393.172 194.792 392.852C194.912 392.532 195.076 392.268 195.284 392.06C195.492 391.844 195.736 391.684 196.016 391.58C196.288 391.468 196.576 391.412 196.88 391.412L197.24 391.412C197.544 391.412 197.836 391.468 198.116 391.58C198.396 391.684 198.644 391.844 198.86 392.06C199.068 392.276 199.236 392.544 199.364 392.864C199.484 393.184 199.544 393.556 199.544 393.98L199.544 395.972ZM198.608 395.972L198.608 394.1C198.608 392.98 198.128 392.42 197.168 392.42L196.952 392.42C196.528 392.42 196.188 392.56 195.932 392.84C195.668 393.112 195.536 393.532 195.536 394.1L195.536 395.972L198.608 395.972ZM202.232 386.932C202.232 386.588 202.176 386.296 202.064 386.056C201.944 385.808 201.788 385.608 201.596 385.456C201.396 385.296 201.172 385.18 200.924 385.108C200.668 385.028 200.4 384.988 200.12 384.988L199.976 384.988L199.976 383.98L200.12 383.98C200.544 383.98 200.944 384.044 201.32 384.172C201.688 384.3 202.012 384.488 202.292 384.736C202.564 384.984 202.78 385.292 202.94 385.66C203.092 386.028 203.168 386.452 203.168 386.932C203.168 387.86 202.876 388.584 202.292 389.104C201.708 389.624 200.856 389.884 199.736 389.884L197.864 389.884C196.776 389.884 195.932 389.624 195.332 389.104C194.732 388.584 194.432 387.86 194.432 386.932C194.432 386.452 194.512 386.028 194.672 385.66C194.824 385.292 195.04 384.984 195.32 384.736C195.592 384.488 195.916 384.3 196.292 384.172C196.66 384.044 197.056 383.98 197.48 383.98L197.624 383.98L197.624 384.988L197.48 384.988C197.208 384.996 196.944 385.04 196.688 385.12C196.432 385.192 196.208 385.308 196.016 385.468C195.816 385.62 195.66 385.816 195.548 386.056C195.428 386.296 195.368 386.588 195.368 386.932C195.368 387.58 195.604 388.068 196.076 388.396C196.548 388.716 197.168 388.876 197.936 388.876L199.664 388.876C200.488 388.876 201.124 388.716 201.572 388.396C202.012 388.068 202.232 387.58 202.232 386.932Z" fill="white"/>
<g filter="url(#filter2_b_2764_49832)">
<rect x="285" y="284" width="132" height="96" rx="8" fill="url(#paint4_linear_2764_49832)"/>
<rect x="285" y="284" width="132" height="96" rx="8" fill="url(#paint5_linear_2764_49832)"/>
<path d="M326.003 328.6H331.907V329.536H329.459V337H328.451V329.536H326.003V328.6ZM334.311 328.6L336.195 332.32H336.411L338.295 328.6H339.399L337.299 332.716V332.86L339.399 337H338.295L336.411 333.256H336.195L334.311 337H333.207L335.307 332.86V332.716L333.207 328.6H334.311ZM349.354 333.544V337H348.346V328.6H351.346C351.778 328.6 352.154 328.664 352.474 328.792C352.794 328.912 353.058 329.076 353.266 329.284C353.482 329.492 353.642 329.736 353.746 330.016C353.858 330.288 353.914 330.576 353.914 330.88V331.24C353.914 331.544 353.858 331.836 353.746 332.116C353.642 332.396 353.482 332.644 353.266 332.86C353.05 333.068 352.782 333.236 352.462 333.364C352.142 333.484 351.77 333.544 351.346 333.544H349.354ZM349.354 332.608H351.226C352.346 332.608 352.906 332.128 352.906 331.168V330.952C352.906 330.528 352.766 330.188 352.486 329.932C352.214 329.668 351.794 329.536 351.226 329.536H349.354V332.608ZM355.394 331.864C355.394 330.776 355.654 329.932 356.174 329.332C356.694 328.732 357.418 328.432 358.346 328.432C359.274 328.432 359.998 328.732 360.518 329.332C361.038 329.932 361.298 330.776 361.298 331.864V333.736C361.298 334.856 361.038 335.708 360.518 336.292C359.998 336.876 359.274 337.168 358.346 337.168C357.418 337.168 356.694 336.876 356.174 336.292C355.654 335.708 355.394 334.856 355.394 333.736V331.864ZM358.346 336.232C358.994 336.232 359.478 336.012 359.798 335.572C360.126 335.124 360.29 334.488 360.29 333.664V331.936C360.29 331.168 360.126 330.548 359.798 330.076C359.478 329.604 358.994 329.368 358.346 329.368C357.698 329.368 357.21 329.604 356.882 330.076C356.562 330.548 356.402 331.168 356.402 331.936V333.664C356.402 334.488 356.562 335.124 356.882 335.572C357.21 336.012 357.698 336.232 358.346 336.232ZM362.741 331.864C362.741 330.776 363.001 329.932 363.521 329.332C364.041 328.732 364.765 328.432 365.693 328.432C366.621 328.432 367.345 328.732 367.865 329.332C368.385 329.932 368.645 330.776 368.645 331.864V333.736C368.645 334.856 368.385 335.708 367.865 336.292C367.345 336.876 366.621 337.168 365.693 337.168C364.765 337.168 364.041 336.876 363.521 336.292C363.001 335.708 362.741 334.856 362.741 333.736V331.864ZM365.693 336.232C366.341 336.232 366.825 336.012 367.145 335.572C367.473 335.124 367.637 334.488 367.637 333.664V331.936C367.637 331.168 367.473 330.548 367.145 330.076C366.825 329.604 366.341 329.368 365.693 329.368C365.045 329.368 364.557 329.604 364.229 330.076C363.909 330.548 363.749 331.168 363.749 331.936V333.664C363.749 334.488 363.909 335.124 364.229 335.572C364.557 336.012 365.045 336.232 365.693 336.232ZM370.413 328.6H371.421V336.064H375.813V337H370.413V328.6Z" fill="white"/>
<rect x="285.5" y="284.5" width="131" height="95" rx="7.5" stroke="#ADABB3"/>
</g>
<g filter="url(#filter3_b_2764_49832)">
<rect x="284" y="479" width="135" height="96" rx="8" fill="url(#paint6_linear_2764_49832)"/>
<rect x="284" y="479" width="135" height="96" rx="8" fill="url(#paint7_linear_2764_49832)"/>
<path d="M327.761 526.024C327.761 525.752 327.705 525.512 327.593 525.304C327.489 525.096 327.345 524.924 327.161 524.788C326.977 524.652 326.765 524.548 326.525 524.476C326.285 524.404 326.033 524.368 325.769 524.368C325.537 524.368 325.317 524.4 325.109 524.464C324.901 524.52 324.713 524.604 324.545 524.716C324.385 524.828 324.257 524.968 324.161 525.136C324.065 525.296 324.017 525.484 324.017 525.7V525.772C324.017 526.004 324.065 526.204 324.161 526.372C324.257 526.532 324.397 526.672 324.581 526.792C324.773 526.904 325.009 527 325.289 527.08C325.569 527.152 325.897 527.216 326.273 527.272C327.153 527.408 327.801 527.668 328.217 528.052C328.633 528.428 328.841 528.936 328.841 529.576V529.72C328.841 530.08 328.777 530.412 328.649 530.716C328.529 531.012 328.345 531.268 328.097 531.484C327.857 531.7 327.557 531.868 327.197 531.988C326.837 532.108 326.421 532.168 325.949 532.168C325.413 532.168 324.937 532.092 324.521 531.94C324.113 531.78 323.769 531.564 323.489 531.292C323.217 531.012 323.009 530.688 322.865 530.32C322.721 529.944 322.649 529.536 322.649 529.096V528.736H323.657V529.024C323.657 529.76 323.857 530.312 324.257 530.68C324.665 531.048 325.229 531.232 325.949 531.232C326.573 531.232 327.041 531.096 327.353 530.824C327.673 530.544 327.833 530.176 327.833 529.72V529.648C327.833 529.208 327.669 528.872 327.341 528.64C327.021 528.408 326.497 528.24 325.769 528.136C325.345 528.08 324.961 527.996 324.617 527.884C324.281 527.764 323.993 527.612 323.753 527.428C323.513 527.236 323.329 527.008 323.201 526.744C323.073 526.48 323.009 526.168 323.009 525.808V525.664C323.009 525.336 323.077 525.036 323.213 524.764C323.349 524.492 323.537 524.256 323.777 524.056C324.025 523.856 324.317 523.704 324.653 523.6C324.997 523.488 325.373 523.432 325.781 523.432C326.253 523.432 326.673 523.5 327.041 523.636C327.417 523.772 327.733 523.956 327.989 524.188C328.245 524.412 328.437 524.68 328.565 524.992C328.701 525.296 328.769 525.616 328.769 525.952V526.456H327.761V526.024ZM334.929 529.912H331.329L330.717 532H329.637L332.181 523.6H334.077L336.621 532H335.541L334.929 529.912ZM333.057 524.032L331.605 528.976H334.653L333.201 524.032H333.057ZM337.357 523.6H339.277L340.405 531.568H340.549L341.677 523.6H343.597V532H342.661V524.032H342.517L341.389 532H339.565L338.437 524.032H338.293V532H337.357V523.6ZM353.528 528.544V532H352.52V523.6H355.52C355.952 523.6 356.328 523.664 356.648 523.792C356.968 523.912 357.232 524.076 357.44 524.284C357.656 524.492 357.816 524.736 357.92 525.016C358.032 525.288 358.088 525.576 358.088 525.88V526.24C358.088 526.544 358.032 526.836 357.92 527.116C357.816 527.396 357.656 527.644 357.44 527.86C357.224 528.068 356.956 528.236 356.636 528.364C356.316 528.484 355.944 528.544 355.52 528.544H353.528ZM353.528 527.608H355.4C356.52 527.608 357.08 527.128 357.08 526.168V525.952C357.08 525.528 356.94 525.188 356.66 524.932C356.388 524.668 355.968 524.536 355.4 524.536H353.528V527.608ZM359.568 526.864C359.568 525.776 359.828 524.932 360.348 524.332C360.868 523.732 361.592 523.432 362.52 523.432C363.448 523.432 364.172 523.732 364.692 524.332C365.212 524.932 365.472 525.776 365.472 526.864V528.736C365.472 529.856 365.212 530.708 364.692 531.292C364.172 531.876 363.448 532.168 362.52 532.168C361.592 532.168 360.868 531.876 360.348 531.292C359.828 530.708 359.568 529.856 359.568 528.736V526.864ZM362.52 531.232C363.168 531.232 363.652 531.012 363.972 530.572C364.3 530.124 364.464 529.488 364.464 528.664V526.936C364.464 526.168 364.3 525.548 363.972 525.076C363.652 524.604 363.168 524.368 362.52 524.368C361.872 524.368 361.384 524.604 361.056 525.076C360.736 525.548 360.576 526.168 360.576 526.936V528.664C360.576 529.488 360.736 530.124 361.056 530.572C361.384 531.012 361.872 531.232 362.52 531.232ZM366.915 526.864C366.915 525.776 367.175 524.932 367.695 524.332C368.215 523.732 368.939 523.432 369.867 523.432C370.795 523.432 371.519 523.732 372.039 524.332C372.559 524.932 372.819 525.776 372.819 526.864V528.736C372.819 529.856 372.559 530.708 372.039 531.292C371.519 531.876 370.795 532.168 369.867 532.168C368.939 532.168 368.215 531.876 367.695 531.292C367.175 530.708 366.915 529.856 366.915 528.736V526.864ZM369.867 531.232C370.515 531.232 370.999 531.012 371.319 530.572C371.647 530.124 371.811 529.488 371.811 528.664V526.936C371.811 526.168 371.647 525.548 371.319 525.076C370.999 524.604 370.515 524.368 369.867 524.368C369.219 524.368 368.731 524.604 368.403 525.076C368.083 525.548 367.923 526.168 367.923 526.936V528.664C367.923 529.488 368.083 530.124 368.403 530.572C368.731 531.012 369.219 531.232 369.867 531.232ZM374.587 523.6H375.595V531.064H379.987V532H374.587V523.6Z" fill="white"/>
<rect x="284.5" y="479.5" width="134" height="95" rx="7.5" stroke="#ADABB3"/>
</g>
<g filter="url(#filter4_b_2764_49832)">
<rect x="508" y="284" width="154" height="96" rx="8" fill="url(#paint8_linear_2764_49832)"/>
<rect x="508" y="284" width="154" height="96" rx="8" fill="url(#paint9_linear_2764_49832)"/>
<path d="M548.946 336.064H549.666V329.536H548.946V328.6H552.342C552.742 328.6 553.094 328.656 553.398 328.768C553.71 328.88 553.97 329.032 554.178 329.224C554.394 329.416 554.554 329.648 554.658 329.92C554.77 330.184 554.826 330.472 554.826 330.784V330.928C554.826 331.16 554.79 331.372 554.718 331.564C554.646 331.756 554.546 331.928 554.418 332.08C554.29 332.232 554.138 332.364 553.962 332.476C553.794 332.58 553.61 332.66 553.41 332.716V332.86C553.81 332.972 554.146 333.188 554.418 333.508C554.69 333.82 554.826 334.204 554.826 334.66V334.804C554.826 335.116 554.77 335.408 554.658 335.68C554.554 335.944 554.394 336.176 554.178 336.376C553.97 336.568 553.71 336.72 553.398 336.832C553.094 336.944 552.742 337 552.342 337H548.946V336.064ZM550.674 336.064H552.27C552.742 336.064 553.126 335.948 553.422 335.716C553.718 335.476 553.866 335.148 553.866 334.732V334.66C553.866 334.228 553.726 333.888 553.446 333.64C553.166 333.384 552.786 333.256 552.306 333.256H550.674V336.064ZM550.674 332.32H552.306C552.786 332.32 553.166 332.196 553.446 331.948C553.726 331.7 553.866 331.36 553.866 330.928V330.856C553.866 330.448 553.718 330.128 553.422 329.896C553.126 329.656 552.742 329.536 552.27 329.536H550.674V332.32ZM556.653 328.6H557.661V336.064H562.053V337H556.653V328.6ZM563.677 331.864C563.677 330.776 563.937 329.932 564.457 329.332C564.977 328.732 565.701 328.432 566.629 328.432C567.557 328.432 568.281 328.732 568.801 329.332C569.321 329.932 569.581 330.776 569.581 331.864V333.736C569.581 334.856 569.321 335.708 568.801 336.292C568.281 336.876 567.557 337.168 566.629 337.168C565.701 337.168 564.977 336.876 564.457 336.292C563.937 335.708 563.677 334.856 563.677 333.736V331.864ZM566.629 336.232C567.277 336.232 567.761 336.012 568.081 335.572C568.409 335.124 568.573 334.488 568.573 333.664V331.936C568.573 331.168 568.409 330.548 568.081 330.076C567.761 329.604 567.277 329.368 566.629 329.368C565.981 329.368 565.493 329.604 565.165 330.076C564.845 330.548 564.685 331.168 564.685 331.936V333.664C564.685 334.488 564.845 335.124 565.165 335.572C565.493 336.012 565.981 336.232 566.629 336.232ZM574.025 336.232C574.369 336.232 574.661 336.176 574.901 336.064C575.149 335.944 575.349 335.788 575.501 335.596C575.661 335.396 575.777 335.172 575.849 334.924C575.929 334.668 575.969 334.4 575.969 334.12V333.976H576.977V334.12C576.977 334.544 576.913 334.944 576.785 335.32C576.657 335.688 576.469 336.012 576.221 336.292C575.973 336.564 575.665 336.78 575.297 336.94C574.929 337.092 574.505 337.168 574.025 337.168C573.097 337.168 572.373 336.876 571.853 336.292C571.333 335.708 571.073 334.856 571.073 333.736V331.864C571.073 330.776 571.333 329.932 571.853 329.332C572.373 328.732 573.097 328.432 574.025 328.432C574.505 328.432 574.929 328.512 575.297 328.672C575.665 328.824 575.973 329.04 576.221 329.32C576.469 329.592 576.657 329.916 576.785 330.292C576.913 330.66 576.977 331.056 576.977 331.48V331.624H575.969V331.48C575.961 331.208 575.917 330.944 575.837 330.688C575.765 330.432 575.649 330.208 575.489 330.016C575.337 329.816 575.141 329.66 574.901 329.548C574.661 329.428 574.369 329.368 574.025 329.368C573.377 329.368 572.889 329.604 572.561 330.076C572.241 330.548 572.081 331.168 572.081 331.936V333.664C572.081 334.488 572.241 335.124 572.561 335.572C572.889 336.012 573.377 336.232 574.025 336.232ZM579.728 337H578.72V328.6H579.728V332.32H580.004L583.232 328.6H584.48V328.672L581 332.728V332.872L584.624 336.928V337H583.352L580.004 333.256H579.728V337ZM588.72 336.232C589.064 336.232 589.356 336.176 589.596 336.064C589.844 335.944 590.044 335.788 590.196 335.596C590.356 335.396 590.472 335.172 590.544 334.924C590.624 334.668 590.664 334.4 590.664 334.12V333.976H591.672V334.12C591.672 334.544 591.608 334.944 591.48 335.32C591.352 335.688 591.164 336.012 590.916 336.292C590.668 336.564 590.36 336.78 589.992 336.94C589.624 337.092 589.2 337.168 588.72 337.168C587.792 337.168 587.068 336.876 586.548 336.292C586.028 335.708 585.768 334.856 585.768 333.736V331.864C585.768 330.776 586.028 329.932 586.548 329.332C587.068 328.732 587.792 328.432 588.72 328.432C589.2 328.432 589.624 328.512 589.992 328.672C590.36 328.824 590.668 329.04 590.916 329.32C591.164 329.592 591.352 329.916 591.48 330.292C591.608 330.66 591.672 331.056 591.672 331.48V331.624H590.664V331.48C590.656 331.208 590.612 330.944 590.532 330.688C590.46 330.432 590.344 330.208 590.184 330.016C590.032 329.816 589.836 329.66 589.596 329.548C589.356 329.428 589.064 329.368 588.72 329.368C588.072 329.368 587.584 329.604 587.256 330.076C586.936 330.548 586.776 331.168 586.776 331.936V333.664C586.776 334.488 586.936 335.124 587.256 335.572C587.584 336.012 588.072 336.232 588.72 336.232ZM593.224 328.6H594.232V332.32H597.808V328.6H598.816V337H597.808V333.256H594.232V337H593.224V328.6ZM605.167 334.912H601.567L600.955 337H599.875L602.419 328.6H604.315L606.859 337H605.779L605.167 334.912ZM603.295 329.032L601.843 333.976H604.891L603.439 329.032H603.295ZM608.051 328.6H613.379V329.536H611.219V336.064H613.379V337H608.051V336.064H610.211V329.536H608.051V328.6ZM619.707 336.568H619.851V328.6H620.859V337H618.843L616.419 329.032H616.275V337H615.267V328.6H617.283L619.707 336.568Z" fill="white"/>
<rect x="508.5" y="284.5" width="153" height="95" rx="7.5" stroke="#ADABB3"/>
</g>
<g filter="url(#filter5_b_2764_49832)">
<rect x="508" y="479" width="161" height="96" rx="8" fill="url(#paint10_linear_2764_49832)"/>
<rect x="508" y="479" width="161" height="96" rx="8" fill="url(#paint11_linear_2764_49832)"/>
<path d="M567.141 531.064H567.861V524.536H567.141V523.6H570.537C570.937 523.6 571.289 523.656 571.593 523.768C571.905 523.88 572.165 524.032 572.373 524.224C572.589 524.416 572.749 524.648 572.853 524.92C572.965 525.184 573.021 525.472 573.021 525.784V525.928C573.021 526.16 572.985 526.372 572.913 526.564C572.841 526.756 572.741 526.928 572.613 527.08C572.485 527.232 572.333 527.364 572.157 527.476C571.989 527.58 571.805 527.66 571.605 527.716V527.86C572.005 527.972 572.341 528.188 572.613 528.508C572.885 528.82 573.021 529.204 573.021 529.66V529.804C573.021 530.116 572.965 530.408 572.853 530.68C572.749 530.944 572.589 531.176 572.373 531.376C572.165 531.568 571.905 531.72 571.593 531.832C571.289 531.944 570.937 532 570.537 532H567.141V531.064ZM568.869 531.064H570.465C570.937 531.064 571.321 530.948 571.617 530.716C571.913 530.476 572.061 530.148 572.061 529.732V529.66C572.061 529.228 571.921 528.888 571.641 528.64C571.361 528.384 570.981 528.256 570.501 528.256H568.869V531.064ZM568.869 527.32H570.501C570.981 527.32 571.361 527.196 571.641 526.948C571.921 526.7 572.061 526.36 572.061 525.928V525.856C572.061 525.448 571.913 525.128 571.617 524.896C571.321 524.656 570.937 524.536 570.465 524.536H568.869V527.32ZM580.105 532H579.097V529.192C579.097 528.984 579.049 528.824 578.953 528.712C578.857 528.6 578.689 528.544 578.449 528.544H575.833V532H574.825V523.6H577.825C578.257 523.6 578.633 523.664 578.953 523.792C579.273 523.912 579.537 524.076 579.745 524.284C579.961 524.492 580.121 524.736 580.225 525.016C580.337 525.288 580.393 525.576 580.393 525.88V526.24C580.393 526.552 580.305 526.864 580.129 527.176C579.961 527.488 579.697 527.728 579.337 527.896V528.04C579.577 528.08 579.765 528.176 579.901 528.328C580.037 528.48 580.105 528.696 580.105 528.976V532ZM575.833 527.608H577.705C578.273 527.608 578.693 527.488 578.965 527.248C579.245 527 579.385 526.64 579.385 526.168V525.952C579.385 525.528 579.245 525.188 578.965 524.932C578.693 524.668 578.273 524.536 577.705 524.536H575.833V527.608ZM582.16 523.6H587.488V524.536H585.328V531.064H587.488V532H582.16V531.064H584.32V524.536H582.16V523.6ZM589.376 523.6H592.136C593.176 523.6 593.936 523.848 594.416 524.344C594.896 524.84 595.136 525.632 595.136 526.72V528.88C595.136 529.968 594.896 530.76 594.416 531.256C593.936 531.752 593.176 532 592.136 532H589.376V531.052H590.096V524.536H589.376V523.6ZM591.992 531.064C592.36 531.064 592.676 531.028 592.94 530.956C593.212 530.884 593.436 530.764 593.612 530.596C593.788 530.42 593.916 530.188 593.996 529.9C594.084 529.612 594.128 529.248 594.128 528.808V526.792C594.128 526.352 594.084 525.988 593.996 525.7C593.916 525.412 593.788 525.184 593.612 525.016C593.436 524.84 593.212 524.716 592.94 524.644C592.676 524.572 592.36 524.536 591.992 524.536H591.104V531.064H591.992ZM598.716 527.968H602.46V532H601.524V530.992H601.38C601.244 531.344 601.004 531.628 600.66 531.844C600.316 532.06 599.916 532.168 599.46 532.168C598.556 532.168 597.844 531.876 597.324 531.292C596.812 530.708 596.556 529.856 596.556 528.736V526.864C596.556 525.776 596.816 524.932 597.336 524.332C597.856 523.732 598.58 523.432 599.508 523.432C599.988 523.432 600.412 523.512 600.78 523.672C601.148 523.824 601.456 524.04 601.704 524.32C601.952 524.592 602.14 524.916 602.268 525.292C602.396 525.66 602.46 526.056 602.46 526.48V526.624H601.452V526.48C601.452 526.208 601.412 525.944 601.332 525.688C601.26 525.432 601.144 525.208 600.984 525.016C600.832 524.816 600.632 524.66 600.384 524.548C600.144 524.428 599.852 524.368 599.508 524.368C598.86 524.368 598.372 524.604 598.044 525.076C597.724 525.548 597.564 526.168 597.564 526.936V528.664C597.564 529.488 597.724 530.124 598.044 530.572C598.372 531.012 598.868 531.232 599.532 531.232C600.132 531.232 600.6 531.04 600.936 530.656C601.28 530.272 601.452 529.736 601.452 529.048V528.904H598.716V527.968ZM604.323 523.6H609.411V524.536H605.331V527.32H609.339V528.256H605.331V531.064H609.483V532H604.323V523.6Z" fill="white"/>
<rect x="508.5" y="479.5" width="160" height="95" rx="7.5" stroke="#ADABB3"/>
</g>
<g filter="url(#filter6_b_2764_49832)">
<rect x="758" y="284" width="132" height="104" rx="8" fill="url(#paint12_linear_2764_49832)"/>
<rect x="758" y="284" width="132" height="104" rx="8" fill="url(#paint13_linear_2764_49832)"/>
<path d="M804.583 333H803.575V330.192C803.575 329.984 803.527 329.824 803.431 329.712C803.335 329.6 803.167 329.544 802.927 329.544H800.311V333H799.303V324.6H802.303C802.735 324.6 803.111 324.664 803.431 324.792C803.751 324.912 804.015 325.076 804.223 325.284C804.439 325.492 804.599 325.736 804.703 326.016C804.815 326.288 804.871 326.576 804.871 326.88V327.24C804.871 327.552 804.783 327.864 804.607 328.176C804.439 328.488 804.175 328.728 803.815 328.896V329.04C804.055 329.08 804.243 329.176 804.379 329.328C804.515 329.48 804.583 329.696 804.583 329.976V333ZM800.311 328.608H802.183C802.751 328.608 803.171 328.488 803.443 328.248C803.723 328 803.863 327.64 803.863 327.168V326.952C803.863 326.528 803.723 326.188 803.443 325.932C803.171 325.668 802.751 325.536 802.183 325.536H800.311V328.608ZM807.431 324.6V330.168C807.431 330.848 807.587 331.364 807.899 331.716C808.219 332.06 808.687 332.232 809.303 332.232C809.919 332.232 810.383 332.06 810.695 331.716C811.015 331.364 811.175 330.848 811.175 330.168V324.6H812.183V330.168C812.183 331.144 811.927 331.888 811.415 332.4C810.903 332.912 810.199 333.168 809.303 333.168C808.407 333.168 807.703 332.912 807.191 332.4C806.679 331.888 806.423 331.144 806.423 330.168V324.6H807.431ZM818.295 332.568H818.439V324.6H819.447V333H817.431L815.007 325.032H814.863V333H813.855V324.6H815.871L818.295 332.568ZM821.046 324.6H826.95V325.536H824.502V333H823.494V325.536H821.046V324.6ZM828.682 324.6H834.01V325.536H831.85V332.064H834.01V333H828.682V332.064H830.842V325.536H828.682V324.6ZM835.573 324.6H837.493L838.621 332.568H838.765L839.893 324.6H841.813V333H840.877V325.032H840.733L839.605 333H837.781L836.653 325.032H836.509V333H835.573V324.6ZM843.497 324.6H848.585V325.536H844.505V328.32H848.513V329.256H844.505V332.064H848.657V333H843.497V324.6ZM812.183 349.984V350.872H811.751C811.191 350.872 810.655 350.768 810.143 350.56C809.631 350.352 809.179 350.048 808.787 349.648C808.395 349.256 808.083 348.78 807.851 348.22C807.619 347.66 807.503 347.024 807.503 346.312V343.288C807.503 342.584 807.619 341.952 807.851 341.392C808.083 340.824 808.395 340.344 808.787 339.952C809.179 339.552 809.631 339.248 810.143 339.04C810.655 338.832 811.191 338.728 811.751 338.728H812.183V339.616H811.751C811.319 339.616 810.903 339.704 810.503 339.88C810.103 340.048 809.751 340.292 809.447 340.612C809.143 340.932 808.899 341.324 808.715 341.788C808.531 342.244 808.439 342.76 808.439 343.336V346.264C808.439 346.84 808.531 347.36 808.715 347.824C808.899 348.28 809.143 348.668 809.447 348.988C809.751 349.308 810.103 349.552 810.503 349.72C810.903 349.896 811.319 349.984 811.751 349.984H812.183ZM814.107 340.6H819.195V341.536H815.115V344.32H819.123V345.256H815.115V348.064H819.267V349H814.107V340.6ZM820.65 340.6H821.73L823.926 348.568H824.07L826.266 340.6H827.346L824.97 349H823.026L820.65 340.6ZM828.226 340.6H830.146L831.274 348.568H831.418L832.546 340.6H834.466V349H833.53V341.032H833.386L832.258 349H830.434L829.306 341.032H829.162V349H828.226V340.6ZM836.245 349.984C836.677 349.984 837.093 349.896 837.493 349.72C837.893 349.552 838.245 349.308 838.549 348.988C838.853 348.668 839.097 348.28 839.281 347.824C839.465 347.36 839.557 346.84 839.557 346.264V343.336C839.557 342.76 839.465 342.244 839.281 341.788C839.097 341.324 838.853 340.932 838.549 340.612C838.245 340.292 837.893 340.048 837.493 339.88C837.093 339.704 836.677 339.616 836.245 339.616H835.813V338.728H836.245C836.805 338.728 837.341 338.832 837.853 339.04C838.365 339.248 838.817 339.552 839.209 339.952C839.601 340.344 839.913 340.824 840.145 341.392C840.377 341.952 840.493 342.584 840.493 343.288V346.312C840.493 347.024 840.377 347.66 840.145 348.22C839.913 348.78 839.601 349.256 839.209 349.648C838.817 350.048 838.365 350.352 837.853 350.56C837.341 350.768 836.805 350.872 836.245 350.872H835.813V349.984H836.245Z" fill="white"/>
<rect x="758.5" y="284.5" width="131" height="103" rx="7.5" stroke="#ADABB3"/>
</g>
<g filter="url(#filter7_b_2764_49832)">
<rect x="758" y="485" width="147" height="96" rx="8" fill="url(#paint14_linear_2764_49832)"/>
<rect x="758" y="485" width="147" height="96" rx="8" fill="url(#paint15_linear_2764_49832)"/>
<path d="M802.156 537.232C802.5 537.232 802.792 537.176 803.032 537.064C803.28 536.944 803.48 536.788 803.632 536.596C803.792 536.396 803.908 536.172 803.98 535.924C804.06 535.668 804.1 535.4 804.1 535.12V534.976H805.108V535.12C805.108 535.544 805.044 535.944 804.916 536.32C804.788 536.688 804.6 537.012 804.352 537.292C804.104 537.564 803.796 537.78 803.428 537.94C803.06 538.092 802.636 538.168 802.156 538.168C801.228 538.168 800.504 537.876 799.984 537.292C799.464 536.708 799.204 535.856 799.204 534.736V532.864C799.204 531.776 799.464 530.932 799.984 530.332C800.504 529.732 801.228 529.432 802.156 529.432C802.636 529.432 803.06 529.512 803.428 529.672C803.796 529.824 804.104 530.04 804.352 530.32C804.6 530.592 804.788 530.916 804.916 531.292C805.044 531.66 805.108 532.056 805.108 532.48V532.624H804.1V532.48C804.092 532.208 804.048 531.944 803.968 531.688C803.896 531.432 803.78 531.208 803.62 531.016C803.468 530.816 803.272 530.66 803.032 530.548C802.792 530.428 802.5 530.368 802.156 530.368C801.508 530.368 801.02 530.604 800.692 531.076C800.372 531.548 800.212 532.168 800.212 532.936V534.664C800.212 535.488 800.372 536.124 800.692 536.572C801.02 537.012 801.508 537.232 802.156 537.232ZM806.503 532.864C806.503 531.776 806.763 530.932 807.283 530.332C807.803 529.732 808.527 529.432 809.455 529.432C810.383 529.432 811.107 529.732 811.627 530.332C812.147 530.932 812.407 531.776 812.407 532.864V534.736C812.407 535.856 812.147 536.708 811.627 537.292C811.107 537.876 810.383 538.168 809.455 538.168C808.527 538.168 807.803 537.876 807.283 537.292C806.763 536.708 806.503 535.856 806.503 534.736V532.864ZM809.455 537.232C810.103 537.232 810.587 537.012 810.907 536.572C811.235 536.124 811.399 535.488 811.399 534.664V532.936C811.399 532.168 811.235 531.548 810.907 531.076C810.587 530.604 810.103 530.368 809.455 530.368C808.807 530.368 808.319 530.604 807.991 531.076C807.671 531.548 807.511 532.168 807.511 532.936V534.664C807.511 535.488 807.671 536.124 807.991 536.572C808.319 537.012 808.807 537.232 809.455 537.232ZM818.447 537.568H818.591V529.6H819.599V538H817.583L815.159 530.032H815.015V538H814.007V529.6H816.023L818.447 537.568ZM826.131 532.024C826.131 531.752 826.075 531.512 825.963 531.304C825.859 531.096 825.715 530.924 825.531 530.788C825.347 530.652 825.135 530.548 824.895 530.476C824.655 530.404 824.403 530.368 824.139 530.368C823.907 530.368 823.687 530.4 823.479 530.464C823.271 530.52 823.083 530.604 822.915 530.716C822.755 530.828 822.627 530.968 822.531 531.136C822.435 531.296 822.387 531.484 822.387 531.7V531.772C822.387 532.004 822.435 532.204 822.531 532.372C822.627 532.532 822.767 532.672 822.951 532.792C823.143 532.904 823.379 533 823.659 533.08C823.939 533.152 824.267 533.216 824.643 533.272C825.523 533.408 826.171 533.668 826.587 534.052C827.003 534.428 827.211 534.936 827.211 535.576V535.72C827.211 536.08 827.147 536.412 827.019 536.716C826.899 537.012 826.715 537.268 826.467 537.484C826.227 537.7 825.927 537.868 825.567 537.988C825.207 538.108 824.791 538.168 824.319 538.168C823.783 538.168 823.307 538.092 822.891 537.94C822.483 537.78 822.139 537.564 821.859 537.292C821.587 537.012 821.379 536.688 821.235 536.32C821.091 535.944 821.019 535.536 821.019 535.096V534.736H822.027V535.024C822.027 535.76 822.227 536.312 822.627 536.68C823.035 537.048 823.599 537.232 824.319 537.232C824.943 537.232 825.411 537.096 825.723 536.824C826.043 536.544 826.203 536.176 826.203 535.72V535.648C826.203 535.208 826.039 534.872 825.711 534.64C825.391 534.408 824.867 534.24 824.139 534.136C823.715 534.08 823.331 533.996 822.987 533.884C822.651 533.764 822.363 533.612 822.123 533.428C821.883 533.236 821.699 533.008 821.571 532.744C821.443 532.48 821.379 532.168 821.379 531.808V531.664C821.379 531.336 821.447 531.036 821.583 530.764C821.719 530.492 821.907 530.256 822.147 530.056C822.395 529.856 822.687 529.704 823.023 529.6C823.367 529.488 823.743 529.432 824.151 529.432C824.623 529.432 825.043 529.5 825.411 529.636C825.787 529.772 826.103 529.956 826.359 530.188C826.615 530.412 826.807 530.68 826.935 530.992C827.071 531.296 827.139 531.616 827.139 531.952V532.456H826.131V532.024ZM828.954 529.6H834.042V530.536H829.962V533.32H833.97V534.256H829.962V537.064H834.114V538H828.954V529.6ZM840.49 537.568H840.634V529.6H841.642V538H839.626L837.202 530.032H837.058V538H836.05V529.6H838.066L840.49 537.568ZM848.173 532.024C848.173 531.752 848.117 531.512 848.005 531.304C847.901 531.096 847.757 530.924 847.573 530.788C847.389 530.652 847.177 530.548 846.937 530.476C846.697 530.404 846.445 530.368 846.181 530.368C845.949 530.368 845.729 530.4 845.521 530.464C845.313 530.52 845.125 530.604 844.957 530.716C844.797 530.828 844.669 530.968 844.573 531.136C844.477 531.296 844.429 531.484 844.429 531.7V531.772C844.429 532.004 844.477 532.204 844.573 532.372C844.669 532.532 844.809 532.672 844.993 532.792C845.185 532.904 845.421 533 845.701 533.08C845.981 533.152 846.309 533.216 846.685 533.272C847.565 533.408 848.213 533.668 848.629 534.052C849.045 534.428 849.253 534.936 849.253 535.576V535.72C849.253 536.08 849.189 536.412 849.061 536.716C848.941 537.012 848.757 537.268 848.509 537.484C848.269 537.7 847.969 537.868 847.609 537.988C847.249 538.108 846.833 538.168 846.361 538.168C845.825 538.168 845.349 538.092 844.933 537.94C844.525 537.78 844.181 537.564 843.901 537.292C843.629 537.012 843.421 536.688 843.277 536.32C843.133 535.944 843.061 535.536 843.061 535.096V534.736H844.069V535.024C844.069 535.76 844.269 536.312 844.669 536.68C845.077 537.048 845.641 537.232 846.361 537.232C846.985 537.232 847.453 537.096 847.765 536.824C848.085 536.544 848.245 536.176 848.245 535.72V535.648C848.245 535.208 848.081 534.872 847.753 534.64C847.433 534.408 846.909 534.24 846.181 534.136C845.757 534.08 845.373 533.996 845.029 533.884C844.693 533.764 844.405 533.612 844.165 533.428C843.925 533.236 843.741 533.008 843.613 532.744C843.485 532.48 843.421 532.168 843.421 531.808V531.664C843.421 531.336 843.489 531.036 843.625 530.764C843.761 530.492 843.949 530.256 844.189 530.056C844.437 529.856 844.729 529.704 845.065 529.6C845.409 529.488 845.785 529.432 846.193 529.432C846.665 529.432 847.085 529.5 847.453 529.636C847.829 529.772 848.145 529.956 848.401 530.188C848.657 530.412 848.849 530.68 848.977 530.992C849.113 531.296 849.181 531.616 849.181 531.952V532.456H848.173V532.024ZM851.669 529.6V535.168C851.669 535.848 851.825 536.364 852.137 536.716C852.457 537.06 852.925 537.232 853.541 537.232C854.157 537.232 854.621 537.06 854.933 536.716C855.253 536.364 855.413 535.848 855.413 535.168V529.6H856.421V535.168C856.421 536.144 856.165 536.888 855.653 537.4C855.141 537.912 854.437 538.168 853.541 538.168C852.645 538.168 851.941 537.912 851.429 537.4C850.917 536.888 850.661 536.144 850.661 535.168V529.6H851.669ZM862.869 532.024C862.869 531.752 862.813 531.512 862.701 531.304C862.597 531.096 862.453 530.924 862.269 530.788C862.085 530.652 861.873 530.548 861.633 530.476C861.393 530.404 861.141 530.368 860.877 530.368C860.645 530.368 860.425 530.4 860.217 530.464C860.009 530.52 859.821 530.604 859.653 530.716C859.493 530.828 859.365 530.968 859.269 531.136C859.173 531.296 859.125 531.484 859.125 531.7V531.772C859.125 532.004 859.173 532.204 859.269 532.372C859.365 532.532 859.505 532.672 859.689 532.792C859.881 532.904 860.117 533 860.397 533.08C860.677 533.152 861.005 533.216 861.381 533.272C862.261 533.408 862.909 533.668 863.325 534.052C863.741 534.428 863.949 534.936 863.949 535.576V535.72C863.949 536.08 863.885 536.412 863.757 536.716C863.637 537.012 863.453 537.268 863.205 537.484C862.965 537.7 862.665 537.868 862.305 537.988C861.945 538.108 861.529 538.168 861.057 538.168C860.521 538.168 860.045 538.092 859.629 537.94C859.221 537.78 858.877 537.564 858.597 537.292C858.325 537.012 858.117 536.688 857.973 536.32C857.829 535.944 857.757 535.536 857.757 535.096V534.736H858.765V535.024C858.765 535.76 858.965 536.312 859.365 536.68C859.773 537.048 860.337 537.232 861.057 537.232C861.681 537.232 862.149 537.096 862.461 536.824C862.781 536.544 862.941 536.176 862.941 535.72V535.648C862.941 535.208 862.777 534.872 862.449 534.64C862.129 534.408 861.605 534.24 860.877 534.136C860.453 534.08 860.069 533.996 859.725 533.884C859.389 533.764 859.101 533.612 858.861 533.428C858.621 533.236 858.437 533.008 858.309 532.744C858.181 532.48 858.117 532.168 858.117 531.808V531.664C858.117 531.336 858.185 531.036 858.321 530.764C858.457 530.492 858.645 530.256 858.885 530.056C859.133 529.856 859.425 529.704 859.761 529.6C860.105 529.488 860.481 529.432 860.889 529.432C861.361 529.432 861.781 529.5 862.149 529.636C862.525 529.772 862.841 529.956 863.097 530.188C863.353 530.412 863.545 530.68 863.673 530.992C863.809 531.296 863.877 531.616 863.877 531.952V532.456H862.869V532.024Z" fill="white"/>
<rect x="758.5" y="485.5" width="146" height="95" rx="7.5" stroke="#ADABB3"/>
</g>
<g filter="url(#filter8_b_2764_49832)">
<rect x="284" y="665" width="621" height="56" rx="8" fill="url(#paint16_linear_2764_49832)"/>
<rect x="284" y="665" width="621" height="56" rx="8" fill="url(#paint17_linear_2764_49832)"/>
<path d="M573.501 689.6H574.509V697.064H578.901V698H573.501V689.6ZM580.813 689.6H586.141V690.536H583.981V697.064H586.141V698H580.813V697.064H582.973V690.536H580.813V689.6ZM587.836 697.064H588.556V690.536H587.836V689.6H591.232C591.632 689.6 591.984 689.656 592.288 689.768C592.6 689.88 592.86 690.032 593.068 690.224C593.284 690.416 593.444 690.648 593.548 690.92C593.66 691.184 593.716 691.472 593.716 691.784V691.928C593.716 692.16 593.68 692.372 593.608 692.564C593.536 692.756 593.436 692.928 593.308 693.08C593.18 693.232 593.028 693.364 592.852 693.476C592.684 693.58 592.5 693.66 592.3 693.716V693.86C592.7 693.972 593.036 694.188 593.308 694.508C593.58 694.82 593.716 695.204 593.716 695.66V695.804C593.716 696.116 593.66 696.408 593.548 696.68C593.444 696.944 593.284 697.176 593.068 697.376C592.86 697.568 592.6 697.72 592.288 697.832C591.984 697.944 591.632 698 591.232 698H587.836V697.064ZM589.564 697.064H591.16C591.632 697.064 592.016 696.948 592.312 696.716C592.608 696.476 592.756 696.148 592.756 695.732V695.66C592.756 695.228 592.616 694.888 592.336 694.64C592.056 694.384 591.676 694.256 591.196 694.256H589.564V697.064ZM589.564 693.32H591.196C591.676 693.32 592.056 693.196 592.336 692.948C592.616 692.7 592.756 692.36 592.756 691.928V691.856C592.756 691.448 592.608 691.128 592.312 690.896C592.016 690.656 591.632 690.536 591.16 690.536H589.564V693.32ZM596.528 694.544V698H595.52V689.6H598.52C598.952 689.6 599.328 689.664 599.648 689.792C599.968 689.912 600.232 690.076 600.44 690.284C600.656 690.492 600.816 690.736 600.92 691.016C601.032 691.288 601.088 691.576 601.088 691.88V692.24C601.088 692.544 601.032 692.836 600.92 693.116C600.816 693.396 600.656 693.644 600.44 693.86C600.224 694.068 599.956 694.236 599.636 694.364C599.316 694.484 598.944 694.544 598.52 694.544H596.528ZM596.528 693.608H598.4C599.52 693.608 600.08 693.128 600.08 692.168V691.952C600.08 691.528 599.94 691.188 599.66 690.932C599.388 690.668 598.968 690.536 598.4 690.536H596.528V693.608ZM608.376 697.064V698H602.688V696.56C602.688 696.176 602.752 695.844 602.88 695.564C603.008 695.276 603.188 695.032 603.42 694.832C603.66 694.624 603.948 694.452 604.284 694.316C604.62 694.18 605 694.064 605.424 693.968C606.136 693.808 606.648 693.58 606.96 693.284C607.28 692.988 607.44 692.624 607.44 692.192V692.12C607.44 691.904 607.404 691.692 607.332 691.484C607.26 691.276 607.148 691.088 606.996 690.92C606.844 690.752 606.648 690.62 606.408 690.524C606.176 690.42 605.896 690.368 605.568 690.368C604.952 690.368 604.472 690.556 604.128 690.932C603.792 691.308 603.624 691.808 603.624 692.432V692.96H602.616V692.36C602.616 691.976 602.68 691.608 602.808 691.256C602.936 690.904 603.124 690.592 603.372 690.32C603.62 690.048 603.928 689.832 604.296 689.672C604.664 689.512 605.088 689.432 605.568 689.432C606.056 689.432 606.48 689.508 606.84 689.66C607.2 689.804 607.5 690 607.74 690.248C607.98 690.488 608.156 690.764 608.268 691.076C608.388 691.38 608.448 691.692 608.448 692.012V692.228C608.448 692.868 608.248 693.416 607.848 693.872C607.448 694.32 606.808 694.64 605.928 694.832C605.16 695 604.596 695.224 604.236 695.504C603.876 695.776 603.696 696.176 603.696 696.704V697.064H608.376ZM611.223 694.544V698H610.215V689.6H613.215C613.647 689.6 614.023 689.664 614.343 689.792C614.663 689.912 614.927 690.076 615.135 690.284C615.351 690.492 615.511 690.736 615.615 691.016C615.727 691.288 615.783 691.576 615.783 691.88V692.24C615.783 692.544 615.727 692.836 615.615 693.116C615.511 693.396 615.351 693.644 615.135 693.86C614.919 694.068 614.651 694.236 614.331 694.364C614.011 694.484 613.639 694.544 613.215 694.544H611.223ZM611.223 693.608H613.095C614.215 693.608 614.775 693.128 614.775 692.168V691.952C614.775 691.528 614.635 691.188 614.355 690.932C614.083 690.668 613.663 690.536 613.095 690.536H611.223V693.608Z" fill="white"/>
<rect x="284.5" y="665.5" width="620" height="55" rx="7.5" stroke="#ADABB3"/>
</g>
<path d="M589.354 382.146C589.158 381.951 588.842 381.951 588.646 382.146L585.464 385.328C585.269 385.524 585.269 385.84 585.464 386.036C585.66 386.231 585.976 386.231 586.172 386.036L589 383.207L591.828 386.036C592.024 386.231 592.34 386.231 592.536 386.036C592.731 385.84 592.731 385.524 592.536 385.328L589.354 382.146ZM589 436L588.5 436L588.5 436.5L589 436.5L589 436ZM824.5 436L825 436L825 435.5L824.5 435.5L824.5 436ZM824.146 482.354C824.342 482.549 824.658 482.549 824.854 482.354L828.036 479.172C828.231 478.976 828.231 478.66 828.036 478.465C827.84 478.269 827.524 478.269 827.328 478.465L824.5 481.293L821.672 478.465C821.476 478.269 821.16 478.269 820.964 478.465C820.769 478.66 820.769 478.976 820.964 479.172L824.146 482.354ZM588.5 382.5L588.5 436L589.5 436L589.5 382.5L588.5 382.5ZM589 436.5L824.5 436.5L824.5 435.5L589 435.5L589 436.5ZM824 436L824 482L825 482L825 436L824 436Z" fill="#7B3FE4"/>
<g filter="url(#filter9_b_2764_49832)">
<circle cx="50" cy="412" r="50" fill="url(#paint18_linear_2764_49832)"/>
<circle cx="50" cy="412" r="50" fill="url(#paint19_linear_2764_49832)"/>
<circle cx="50" cy="412" r="49.5" stroke="#ADABB3"/>
</g>
<path d="M66.6667 395H33.3333C32.4493 395 31.6014 395.355 30.9763 395.986C30.3512 396.617 30 397.474 30 398.367V410.718C30 429.53 45.7917 435.779 48.9583 436.831C49.6349 437.056 50.3651 437.056 51.0417 436.831C54.2083 435.779 70 429.53 70 410.718V398.367C70 397.474 69.6488 396.617 69.0237 395.986C68.3986 395.355 67.5507 395 66.6667 395ZM66.6667 410.718C66.6717 411.653 66.623 412.588 66.5208 413.517H50V433.633C47.3542 432.749 34.9375 427.825 33.4792 413.517H50V398.367H66.6667V410.718Z" fill="#7B3FE4"/>
<g filter="url(#filter10_b_2764_49832)">
<rect x="512" width="154.733" height="66" rx="8" fill="url(#paint20_linear_2764_49832)"/>
<rect x="512" width="154.733" height="66" rx="8" fill="url(#paint21_linear_2764_49832)"/>
<rect x="512.5" y="0.5" width="153.733" height="65" rx="7.5" stroke="#ADABB3"/>
</g>
<path d="M572.088 19.0664L558.578 29.0626L561.09 23.1716L572.088 19.0664Z" fill="#E17726"/>
<path d="M542.093 19.0781L553.061 23.1722L555.446 29.1405L542.093 19.0781ZM566.649 40.3254L572.62 40.4391L570.534 47.5283L563.248 45.5222L566.649 40.3254ZM547.498 40.3254L550.887 45.5222L543.613 47.5284L541.539 40.4391L547.498 40.3254Z" fill="#E27625"/>
<path d="M555.124 27.6211L555.368 35.5025L548.066 35.1703L550.143 32.0368L550.17 32.0067L555.124 27.6211ZM558.952 27.5332L563.982 32.0069L564.008 32.037L566.085 35.1704L558.785 35.5025L558.952 27.5332ZM551.103 40.3492L555.09 43.4557L550.459 45.6917L551.103 40.3492ZM563.049 40.3487L563.68 45.6919L559.062 43.4555L563.049 40.3487Z" fill="#E27625"/>
<path d="M559.161 43.1621L563.847 45.4315L559.488 47.5033L559.533 46.1339L559.161 43.1621ZM554.983 43.1631L554.625 46.1116L554.655 47.5017L550.285 45.4315L554.983 43.1631Z" fill="#D5BFB2"/>
<path d="M553.632 36.5312L554.857 39.1051L550.688 37.8836L553.632 36.5312ZM560.518 36.5315L563.477 37.8836L559.293 39.1047L560.518 36.5315Z" fill="#233447"/>
<path d="M551.419 40.3213L550.745 45.8606L547.133 40.4425L551.419 40.3213ZM562.728 40.3215L567.014 40.4425L563.388 45.8609L562.728 40.3215ZM566.188 34.8555L563.069 38.0348L560.663 36.9357L559.512 39.3565L558.757 35.1936L566.188 34.8555ZM547.957 34.8555L555.39 35.1936L554.635 39.3565L553.483 36.936L551.091 38.0349L547.957 34.8555Z" fill="#CC6228"/>
<path d="M547.746 34.2037L551.276 37.7851L551.398 41.3209L547.746 34.2037ZM566.403 34.1973L562.744 41.3271L562.882 37.7851L566.403 34.1973ZM555.216 34.4218L555.358 35.3159L555.709 37.5433L555.484 44.3845L554.417 38.8888L554.416 38.832L555.216 34.4218ZM558.927 34.4094L559.729 38.832L559.729 38.8888L558.659 44.3982L558.617 43.0202L558.45 37.5028L558.927 34.4094Z" fill="#E27525"/>
<path d="M563.198 37.6426L563.079 40.7145L559.356 43.6154L558.603 43.0836L559.447 38.7379L563.198 37.6426ZM550.965 37.6426L554.703 38.7379L555.547 43.0836L554.795 43.6154L551.071 40.7143L550.965 37.6426Z" fill="#F5841F"/>
<path d="M549.574 44.7539L554.338 47.0109L554.318 46.0471L554.716 45.6972H559.431L559.844 46.0459L559.813 47.009L564.547 44.7596L562.243 46.6629L559.458 48.5757H554.678L551.895 46.655L549.574 44.7539Z" fill="#C0AC9D"/>
<path d="M558.823 42.8613L559.496 43.3372L559.891 46.4861L559.32 46.0039H554.834L554.273 46.4958L554.655 43.3374L555.329 42.8613H558.823Z" fill="#161616"/>
<path d="M571.195 19.3438L572.816 24.2087L571.804 29.1278L572.525 29.6841L571.549 30.4286L572.282 30.9951L571.311 31.8795L571.907 32.3113L570.325 34.1593L563.835 32.2696L563.779 32.2395L559.102 28.2943L571.195 19.3438ZM542.954 19.3438L555.046 28.2943L550.37 32.2395L550.313 32.2696L543.823 34.1593L542.241 32.3113L542.837 31.8798L541.866 30.9951L542.598 30.4292L541.608 29.6826L542.356 29.1259L541.332 24.209L542.954 19.3438Z" fill="#763E1A"/>
<path d="M563.516 31.8557L570.393 33.8578L572.627 40.7433H566.733L562.672 40.7944L565.625 35.0377L563.516 31.8557ZM550.629 31.8557L548.52 35.0377L551.474 40.7944L547.415 40.7433H541.531L543.753 33.8579L550.629 31.8557ZM561.425 23.1387L559.501 28.3335L559.093 35.3511L558.937 37.5507L558.924 43.1697H555.221L555.209 37.5613L555.052 35.3492L554.644 28.3335L552.721 23.1387H561.425Z" fill="#F5841F"/>
<path d="M602.897 38.6632C602.586 33.7114 604.301 24.2479 613.641 21.2762L615.029 19.1942C615.676 18.9165 617.61 18.3613 620.164 18.3613V42.2357L619.792 42.1727C620.034 42.9512 620.164 43.8057 620.164 44.7342C609.948 44.7342 603.415 43.0685 601.426 42.2357V39.7372C601.898 39.3437 602.39 38.9859 602.897 38.6632Z" fill="#F1D801"/>
<path d="M637.401 39.0633C637.831 34.2395 636.285 24.33 626.688 21.2762L625.3 19.1942C624.652 18.9165 622.718 18.3613 620.164 18.3613V38.2104V42.2357V44.7342C630.38 44.7342 636.913 43.0685 638.902 42.2357V39.7372C638.584 39.4723 638.055 39.2496 637.401 39.0633Z" fill="#F1D801"/>
<path d="M619.994 35.693L615.723 33.1786L619.991 39.1812L624.265 33.1786L619.991 35.693H619.994ZM620.057 25.3008L615.788 32.3696L620.057 34.8884L624.329 32.3722L620.057 25.3008Z" fill="black"/>
<path d="M589.854 66.6464C589.658 66.4512 589.342 66.4512 589.146 66.6464L585.964 69.8284C585.769 70.0237 585.769 70.3403 585.964 70.5355C586.16 70.7308 586.476 70.7308 586.672 70.5355L589.5 67.7071L592.328 70.5355C592.524 70.7308 592.84 70.7308 593.036 70.5355C593.231 70.3403 593.231 70.0237 593.036 69.8284L589.854 66.6464ZM589.146 131.354C589.342 131.549 589.658 131.549 589.854 131.354L593.036 128.172C593.231 127.976 593.231 127.66 593.036 127.464C592.84 127.269 592.524 127.269 592.328 127.464L589.5 130.293L586.672 127.464C586.476 127.269 586.16 127.269 585.964 127.464C585.769 127.66 585.769 127.976 585.964 128.172L589.146 131.354ZM589 67L589 131L590 131L590 67L589 67Z" fill="#7B3FE4"/>
<path d="M165.354 417.354C165.549 417.158 165.549 416.842 165.354 416.646L162.172 413.464C161.976 413.269 161.66 413.269 161.464 413.464C161.269 413.66 161.269 413.976 161.464 414.172L164.293 417L161.464 419.828C161.269 420.024 161.269 420.34 161.464 420.536C161.66 420.731 161.976 420.731 162.172 420.536L165.354 417.354ZM100 417.5L165 417.5L165 416.5L100 416.5L100 417.5Z" fill="#7B3FE4"/>
<path d="M351.854 186.646C351.658 186.451 351.342 186.451 351.146 186.646L347.964 189.828C347.769 190.024 347.769 190.34 347.964 190.536C348.16 190.731 348.476 190.731 348.672 190.536L351.5 187.707L354.328 190.536C354.524 190.731 354.84 190.731 355.036 190.536C355.231 190.34 355.231 190.024 355.036 189.828L351.854 186.646ZM351.146 284.354C351.342 284.549 351.658 284.549 351.854 284.354L355.036 281.172C355.231 280.976 355.231 280.66 355.036 280.464C354.84 280.269 354.524 280.269 354.328 280.464L351.5 283.293L348.672 280.464C348.476 280.269 348.16 280.269 347.964 280.464C347.769 280.66 347.769 280.976 347.964 281.172L351.146 284.354ZM351 187L351 284H352L352 187H351Z" fill="#7B3FE4"/>
<path d="M352.354 575.646C352.158 575.451 351.842 575.451 351.646 575.646L348.464 578.828C348.269 579.024 348.269 579.34 348.464 579.536C348.66 579.731 348.976 579.731 349.172 579.536L352 576.707L354.828 579.536C355.024 579.731 355.34 579.731 355.536 579.536C355.731 579.34 355.731 579.024 355.536 578.828L352.354 575.646ZM351.646 665.354C351.842 665.549 352.158 665.549 352.354 665.354L355.536 662.172C355.731 661.976 355.731 661.66 355.536 661.464C355.34 661.269 355.024 661.269 354.828 661.464L352 664.293L349.172 661.464C348.976 661.269 348.66 661.269 348.464 661.464C348.269 661.66 348.269 661.976 348.464 662.172L351.646 665.354ZM351.5 576L351.5 665L352.5 665L352.5 576H351.5Z" fill="#7B3FE4"/>
<path d="M351.854 379.646C351.658 379.451 351.342 379.451 351.146 379.646L347.964 382.828C347.769 383.024 347.769 383.34 347.964 383.536C348.16 383.731 348.476 383.731 348.672 383.536L351.5 380.707L354.328 383.536C354.524 383.731 354.84 383.731 355.036 383.536C355.231 383.34 355.231 383.024 355.036 382.828L351.854 379.646ZM351.146 479.354C351.342 479.549 351.658 479.549 351.854 479.354L355.036 476.172C355.231 475.976 355.231 475.66 355.036 475.464C354.84 475.269 354.524 475.269 354.328 475.464L351.5 478.293L348.672 475.464C348.476 475.269 348.16 475.269 347.964 475.464C347.769 475.66 347.769 475.976 347.964 476.172L351.146 479.354ZM351 380L351 479L352 479L352 380H351Z" fill="#7B3FE4"/>
<path d="M588.854 186.646C588.658 186.451 588.342 186.451 588.146 186.646L584.964 189.828C584.769 190.024 584.769 190.34 584.964 190.536C585.16 190.731 585.476 190.731 585.672 190.536L588.5 187.707L591.328 190.536C591.524 190.731 591.84 190.731 592.036 190.536C592.231 190.34 592.231 190.024 592.036 189.828L588.854 186.646ZM588.146 284.354C588.342 284.549 588.658 284.549 588.854 284.354L592.036 281.172C592.231 280.976 592.231 280.66 592.036 280.464C591.84 280.269 591.524 280.269 591.328 280.464L588.5 283.293L585.672 280.464C585.476 280.269 585.16 280.269 584.964 280.464C584.769 280.66 584.769 280.976 584.964 281.172L588.146 284.354ZM588 187L588 284H589L589 187H588Z" fill="#7B3FE4"/>
<path d="M507.854 336.354C508.049 336.158 508.049 335.842 507.854 335.646L504.672 332.464C504.476 332.269 504.16 332.269 503.964 332.464C503.769 332.66 503.769 332.976 503.964 333.172L506.793 336L503.964 338.828C503.769 339.024 503.769 339.34 503.964 339.536C504.16 339.731 504.476 339.731 504.672 339.536L507.854 336.354ZM417.146 335.646C416.951 335.842 416.951 336.158 417.146 336.354L420.328 339.536C420.524 339.731 420.84 339.731 421.036 339.536C421.231 339.34 421.231 339.024 421.036 338.828L418.207 336L421.036 333.172C421.231 332.976 421.231 332.66 421.036 332.464C420.84 332.269 420.524 332.269 420.328 332.464L417.146 335.646ZM507.5 335.5H417.5V336.5H507.5V335.5Z" fill="#7B3FE4"/>
<path d="M757.854 336.354C758.049 336.158 758.049 335.842 757.854 335.646L754.672 332.464C754.476 332.269 754.16 332.269 753.964 332.464C753.769 332.66 753.769 332.976 753.964 333.172L756.793 336L753.964 338.828C753.769 339.024 753.769 339.34 753.964 339.536C754.16 339.731 754.476 339.731 754.672 339.536L757.854 336.354ZM662.146 335.646C661.951 335.842 661.951 336.158 662.146 336.354L665.328 339.536C665.524 339.731 665.84 339.731 666.036 339.536C666.231 339.34 666.231 339.024 666.036 338.828L663.207 336L666.036 333.172C666.231 332.976 666.231 332.66 666.036 332.464C665.84 332.269 665.524 332.269 665.328 332.464L662.146 335.646ZM757.5 335.5H662.5V336.5H757.5V335.5Z" fill="#7B3FE4"/>
<path d="M758.354 536.646C758.549 536.842 758.549 537.158 758.354 537.354L755.172 540.536C754.976 540.731 754.66 540.731 754.464 540.536C754.269 540.34 754.269 540.024 754.464 539.828L757.293 537L754.464 534.172C754.269 533.976 754.269 533.66 754.464 533.464C754.66 533.269 754.976 533.269 755.172 533.464L758.354 536.646ZM668.646 537.354C668.451 537.158 668.451 536.842 668.646 536.646L671.828 533.464C672.024 533.269 672.34 533.269 672.536 533.464C672.731 533.66 672.731 533.976 672.536 534.172L669.707 537L672.536 539.828C672.731 540.024 672.731 540.34 672.536 540.536C672.34 540.731 672.024 540.731 671.828 540.536L668.646 537.354ZM758 537.5L669 537.5L669 536.5L758 536.5V537.5Z" fill="#7B3FE4"/>
<path d="M508.354 536.646C508.549 536.842 508.549 537.158 508.354 537.354L505.172 540.536C504.976 540.731 504.66 540.731 504.464 540.536C504.269 540.34 504.269 540.024 504.464 539.828L507.293 537L504.464 534.172C504.269 533.976 504.269 533.66 504.464 533.464C504.66 533.269 504.976 533.269 505.172 533.464L508.354 536.646ZM418.646 537.354C418.451 537.158 418.451 536.842 418.646 536.646L421.828 533.464C422.024 533.269 422.34 533.269 422.536 533.464C422.731 533.66 422.731 533.976 422.536 534.172L419.707 537L422.536 539.828C422.731 540.024 422.731 540.34 422.536 540.536C422.34 540.731 422.024 540.731 421.828 540.536L418.646 537.354ZM508 537.5L419 537.5L419 536.5L508 536.5V537.5Z" fill="#7B3FE4"/>
<path d="M829.854 186.646C829.658 186.451 829.342 186.451 829.146 186.646L825.964 189.828C825.769 190.024 825.769 190.34 825.964 190.536C826.16 190.731 826.476 190.731 826.672 190.536L829.5 187.707L832.328 190.536C832.524 190.731 832.84 190.731 833.036 190.536C833.231 190.34 833.231 190.024 833.036 189.828L829.854 186.646ZM829.146 284.354C829.342 284.549 829.658 284.549 829.854 284.354L833.036 281.172C833.231 280.976 833.231 280.66 833.036 280.464C832.84 280.269 832.524 280.269 832.328 280.464L829.5 283.293L826.672 280.464C826.476 280.269 826.16 280.269 825.964 280.464C825.769 280.66 825.769 280.976 825.964 281.172L829.146 284.354ZM829 187L829 284H830L830 187H829Z" fill="#7B3FE4"/>
<path d="M829.854 580.646C829.658 580.451 829.342 580.451 829.146 580.646L825.964 583.828C825.769 584.024 825.769 584.34 825.964 584.536C826.16 584.731 826.476 584.731 826.672 584.536L829.5 581.707L832.328 584.536C832.524 584.731 832.84 584.731 833.036 584.536C833.231 584.34 833.231 584.024 833.036 583.828L829.854 580.646ZM829.146 665.354C829.342 665.549 829.658 665.549 829.854 665.354L833.036 662.172C833.231 661.976 833.231 661.66 833.036 661.464C832.84 661.269 832.524 661.269 832.328 661.464L829.5 664.293L826.672 661.464C826.476 661.269 826.16 661.269 825.964 661.464C825.769 661.66 825.769 661.976 825.964 662.172L829.146 665.354ZM829 581L829 665L830 665L830 581H829Z" fill="#7B3FE4"/>
</g>
<defs>
<filter id="filter0_b_2764_49832" x="121.451" y="87.451" width="152.098" height="685.098" filterUnits="userSpaceOnUse" color-interpolation-filters="sRGB">
<feFlood flood-opacity="0" result="BackgroundImageFix"/>
<feGaussianBlur in="BackgroundImageFix" stdDeviation="21.7745"/>
<feComposite in2="SourceAlpha" operator="in" result="effect1_backgroundBlur_2764_49832"/>
<feBlend mode="normal" in="SourceGraphic" in2="effect1_backgroundBlur_2764_49832" result="shape"/>
</filter>
<filter id="filter1_b_2764_49832" x="241.451" y="87.451" width="703.098" height="143.098" filterUnits="userSpaceOnUse" color-interpolation-filters="sRGB">
<feFlood flood-opacity="0" result="BackgroundImageFix"/>
<feGaussianBlur in="BackgroundImageFix" stdDeviation="21.7745"/>
<feComposite in2="SourceAlpha" operator="in" result="effect1_backgroundBlur_2764_49832"/>
<feBlend mode="normal" in="SourceGraphic" in2="effect1_backgroundBlur_2764_49832" result="shape"/>
</filter>
<filter id="filter2_b_2764_49832" x="241.451" y="240.451" width="219.098" height="183.098" filterUnits="userSpaceOnUse" color-interpolation-filters="sRGB">
<feFlood flood-opacity="0" result="BackgroundImageFix"/>
<feGaussianBlur in="BackgroundImageFix" stdDeviation="21.7745"/>
<feComposite in2="SourceAlpha" operator="in" result="effect1_backgroundBlur_2764_49832"/>
<feBlend mode="normal" in="SourceGraphic" in2="effect1_backgroundBlur_2764_49832" result="shape"/>
</filter>
<filter id="filter3_b_2764_49832" x="240.451" y="435.451" width="222.098" height="183.098" filterUnits="userSpaceOnUse" color-interpolation-filters="sRGB">
<feFlood flood-opacity="0" result="BackgroundImageFix"/>
<feGaussianBlur in="BackgroundImageFix" stdDeviation="21.7745"/>
<feComposite in2="SourceAlpha" operator="in" result="effect1_backgroundBlur_2764_49832"/>
<feBlend mode="normal" in="SourceGraphic" in2="effect1_backgroundBlur_2764_49832" result="shape"/>
</filter>
<filter id="filter4_b_2764_49832" x="464.451" y="240.451" width="241.098" height="183.098" filterUnits="userSpaceOnUse" color-interpolation-filters="sRGB">
<feFlood flood-opacity="0" result="BackgroundImageFix"/>
<feGaussianBlur in="BackgroundImageFix" stdDeviation="21.7745"/>
<feComposite in2="SourceAlpha" operator="in" result="effect1_backgroundBlur_2764_49832"/>
<feBlend mode="normal" in="SourceGraphic" in2="effect1_backgroundBlur_2764_49832" result="shape"/>
</filter>
<filter id="filter5_b_2764_49832" x="464.451" y="435.451" width="248.098" height="183.098" filterUnits="userSpaceOnUse" color-interpolation-filters="sRGB">
<feFlood flood-opacity="0" result="BackgroundImageFix"/>
<feGaussianBlur in="BackgroundImageFix" stdDeviation="21.7745"/>
<feComposite in2="SourceAlpha" operator="in" result="effect1_backgroundBlur_2764_49832"/>
<feBlend mode="normal" in="SourceGraphic" in2="effect1_backgroundBlur_2764_49832" result="shape"/>
</filter>
<filter id="filter6_b_2764_49832" x="714.451" y="240.451" width="219.098" height="191.098" filterUnits="userSpaceOnUse" color-interpolation-filters="sRGB">
<feFlood flood-opacity="0" result="BackgroundImageFix"/>
<feGaussianBlur in="BackgroundImageFix" stdDeviation="21.7745"/>
<feComposite in2="SourceAlpha" operator="in" result="effect1_backgroundBlur_2764_49832"/>
<feBlend mode="normal" in="SourceGraphic" in2="effect1_backgroundBlur_2764_49832" result="shape"/>
</filter>
<filter id="filter7_b_2764_49832" x="714.451" y="441.451" width="234.098" height="183.098" filterUnits="userSpaceOnUse" color-interpolation-filters="sRGB">
<feFlood flood-opacity="0" result="BackgroundImageFix"/>
<feGaussianBlur in="BackgroundImageFix" stdDeviation="21.7745"/>
<feComposite in2="SourceAlpha" operator="in" result="effect1_backgroundBlur_2764_49832"/>
<feBlend mode="normal" in="SourceGraphic" in2="effect1_backgroundBlur_2764_49832" result="shape"/>
</filter>
<filter id="filter8_b_2764_49832" x="240.451" y="621.451" width="708.098" height="143.098" filterUnits="userSpaceOnUse" color-interpolation-filters="sRGB">
<feFlood flood-opacity="0" result="BackgroundImageFix"/>
<feGaussianBlur in="BackgroundImageFix" stdDeviation="21.7745"/>
<feComposite in2="SourceAlpha" operator="in" result="effect1_backgroundBlur_2764_49832"/>
<feBlend mode="normal" in="SourceGraphic" in2="effect1_backgroundBlur_2764_49832" result="shape"/>
</filter>
<filter id="filter9_b_2764_49832" x="-43.549" y="318.451" width="187.098" height="187.098" filterUnits="userSpaceOnUse" color-interpolation-filters="sRGB">
<feFlood flood-opacity="0" result="BackgroundImageFix"/>
<feGaussianBlur in="BackgroundImageFix" stdDeviation="21.7745"/>
<feComposite in2="SourceAlpha" operator="in" result="effect1_backgroundBlur_2764_49832"/>
<feBlend mode="normal" in="SourceGraphic" in2="effect1_backgroundBlur_2764_49832" result="shape"/>
</filter>
<filter id="filter10_b_2764_49832" x="468.451" y="-43.549" width="241.831" height="153.098" filterUnits="userSpaceOnUse" color-interpolation-filters="sRGB">
<feFlood flood-opacity="0" result="BackgroundImageFix"/>
<feGaussianBlur in="BackgroundImageFix" stdDeviation="21.7745"/>
<feComposite in2="SourceAlpha" operator="in" result="effect1_backgroundBlur_2764_49832"/>
<feBlend mode="normal" in="SourceGraphic" in2="effect1_backgroundBlur_2764_49832" result="shape"/>
</filter>
<linearGradient id="paint0_linear_2764_49832" x1="464" y1="729" x2="464" y2="794" gradientUnits="userSpaceOnUse">
<stop stop-color="#16141A"/>
<stop offset="0.808984" stop-color="#0F0D13"/>
</linearGradient>
<linearGradient id="paint1_linear_2764_49832" x1="464" y1="762.825" x2="464" y2="794" gradientUnits="userSpaceOnUse">
<stop stop-color="#0A0A0D" stop-opacity="0"/>
<stop offset="0.583953" stop-color="#0A0A0D" stop-opacity="0.88"/>
</linearGradient>
<linearGradient id="paint2_linear_2764_49832" x1="593" y1="131" x2="593" y2="187" gradientUnits="userSpaceOnUse">
<stop stop-color="#16141A"/>
<stop offset="0.808984" stop-color="#0F0D13"/>
</linearGradient>
<linearGradient id="paint3_linear_2764_49832" x1="593" y1="160.142" x2="593" y2="187" gradientUnits="userSpaceOnUse">
<stop stop-color="#0A0A0D" stop-opacity="0"/>
<stop offset="0.583953" stop-color="#0A0A0D" stop-opacity="0.88"/>
</linearGradient>
<linearGradient id="paint4_linear_2764_49832" x1="351" y1="284" x2="351" y2="380" gradientUnits="userSpaceOnUse">
<stop stop-color="#16141A"/>
<stop offset="0.808984" stop-color="#0F0D13"/>
</linearGradient>
<linearGradient id="paint5_linear_2764_49832" x1="351" y1="333.957" x2="351" y2="380" gradientUnits="userSpaceOnUse">
<stop stop-color="#0A0A0D" stop-opacity="0"/>
<stop offset="0.583953" stop-color="#0A0A0D" stop-opacity="0.88"/>
</linearGradient>
<linearGradient id="paint6_linear_2764_49832" x1="351.5" y1="479" x2="351.5" y2="575" gradientUnits="userSpaceOnUse">
<stop stop-color="#16141A"/>
<stop offset="0.808984" stop-color="#0F0D13"/>
</linearGradient>
<linearGradient id="paint7_linear_2764_49832" x1="351.5" y1="528.957" x2="351.5" y2="575" gradientUnits="userSpaceOnUse">
<stop stop-color="#0A0A0D" stop-opacity="0"/>
<stop offset="0.583953" stop-color="#0A0A0D" stop-opacity="0.88"/>
</linearGradient>
<linearGradient id="paint8_linear_2764_49832" x1="585" y1="284" x2="585" y2="380" gradientUnits="userSpaceOnUse">
<stop stop-color="#16141A"/>
<stop offset="0.808984" stop-color="#0F0D13"/>
</linearGradient>
<linearGradient id="paint9_linear_2764_49832" x1="585" y1="333.957" x2="585" y2="380" gradientUnits="userSpaceOnUse">
<stop stop-color="#0A0A0D" stop-opacity="0"/>
<stop offset="0.583953" stop-color="#0A0A0D" stop-opacity="0.88"/>
</linearGradient>
<linearGradient id="paint10_linear_2764_49832" x1="588.5" y1="479" x2="588.5" y2="575" gradientUnits="userSpaceOnUse">
<stop stop-color="#16141A"/>
<stop offset="0.808984" stop-color="#0F0D13"/>
</linearGradient>
<linearGradient id="paint11_linear_2764_49832" x1="588.5" y1="528.957" x2="588.5" y2="575" gradientUnits="userSpaceOnUse">
<stop stop-color="#0A0A0D" stop-opacity="0"/>
<stop offset="0.583953" stop-color="#0A0A0D" stop-opacity="0.88"/>
</linearGradient>
<linearGradient id="paint12_linear_2764_49832" x1="824" y1="284" x2="824" y2="388" gradientUnits="userSpaceOnUse">
<stop stop-color="#16141A"/>
<stop offset="0.808984" stop-color="#0F0D13"/>
</linearGradient>
<linearGradient id="paint13_linear_2764_49832" x1="824" y1="338.12" x2="824" y2="388" gradientUnits="userSpaceOnUse">
<stop stop-color="#0A0A0D" stop-opacity="0"/>
<stop offset="0.583953" stop-color="#0A0A0D" stop-opacity="0.88"/>
</linearGradient>
<linearGradient id="paint14_linear_2764_49832" x1="831.5" y1="485" x2="831.5" y2="581" gradientUnits="userSpaceOnUse">
<stop stop-color="#16141A"/>
<stop offset="0.808984" stop-color="#0F0D13"/>
</linearGradient>
<linearGradient id="paint15_linear_2764_49832" x1="831.5" y1="534.957" x2="831.5" y2="581" gradientUnits="userSpaceOnUse">
<stop stop-color="#0A0A0D" stop-opacity="0"/>
<stop offset="0.583953" stop-color="#0A0A0D" stop-opacity="0.88"/>
</linearGradient>
<linearGradient id="paint16_linear_2764_49832" x1="594.5" y1="665" x2="594.5" y2="721" gradientUnits="userSpaceOnUse">
<stop stop-color="#16141A"/>
<stop offset="0.808984" stop-color="#0F0D13"/>
</linearGradient>
<linearGradient id="paint17_linear_2764_49832" x1="594.5" y1="694.142" x2="594.5" y2="721" gradientUnits="userSpaceOnUse">
<stop stop-color="#0A0A0D" stop-opacity="0"/>
<stop offset="0.583953" stop-color="#0A0A0D" stop-opacity="0.88"/>
</linearGradient>
<linearGradient id="paint18_linear_2764_49832" x1="50" y1="362" x2="50" y2="462" gradientUnits="userSpaceOnUse">
<stop stop-color="#16141A"/>
<stop offset="0.808984" stop-color="#0F0D13"/>
</linearGradient>
<linearGradient id="paint19_linear_2764_49832" x1="50" y1="414.039" x2="50" y2="462" gradientUnits="userSpaceOnUse">
<stop stop-color="#0A0A0D" stop-opacity="0"/>
<stop offset="0.583953" stop-color="#0A0A0D" stop-opacity="0.88"/>
</linearGradient>
<linearGradient id="paint20_linear_2764_49832" x1="589.367" y1="0" x2="589.367" y2="66" gradientUnits="userSpaceOnUse">
<stop stop-color="#16141A"/>
<stop offset="0.808984" stop-color="#0F0D13"/>
</linearGradient>
<linearGradient id="paint21_linear_2764_49832" x1="589.367" y1="34.3455" x2="589.367" y2="66" gradientUnits="userSpaceOnUse">
<stop stop-color="#0A0A0D" stop-opacity="0"/>
<stop offset="0.583953" stop-color="#0A0A0D" stop-opacity="0.88"/>
</linearGradient>
<clipPath id="clip0_2764_49832">
<rect width="905" height="729" fill="white"/>
</clipPath>
</defs>
</svg>
